<svg xmlns="http://www.w3.org/2000/svg" width="400mm" height="400mm" viewBox="0 0 1417.3228 1417.3228"><g transform="translate(0 364.96)"><path d="M218.567-232.81s327.98-60.904 493.815-60.525c159.885.365 475.822 60.526 475.822 60.526s228.546 741.092 0 969.638C1074.15 850.882 704.312 966.826 704.312 966.826S333.058 851.32 218.567 736.828c-228.545-228.546 0-969.637 0-969.637z" fill="#e91e63" stroke="#d3d3d3" stroke-width="22.989" stroke-miterlimit="1.2"/><path d="M712.334-272.754c-150.263-.343-437.756 50.826-475.934 57.72a2.7 2.7 0 0 0-2.107 1.888c-9.893 33.32-55.73 192.808-81.027 382.177-14.15 105.912-21.092 218.642-10.647 317.716 10.445 99.08 38.495 183.52 90.503 235.527 51.887 51.887 172.673 110.553 278.947 153.4 94.746 38.196 174.41 63.88 191.397 69.27a2.7 2.7 0 0 0 1.638-.002c16.965-5.42 96.3-31.186 190.653-69.42 105.872-42.9 226.205-101.56 277.892-153.247 52.01-52.008 80.06-136.446 90.504-235.527 10.445-99.074 3.503-211.804-10.646-317.715-25.315-189.484-71.197-349.072-81.05-382.247a2.7 2.7 0 0 0-2.095-1.887c-37.805-6.997-313.65-57.32-458.03-57.65z" fill="#fff" fill-opacity=".197" stroke="#fff" stroke-width="22.989" stroke-miterlimit="1.2"/><flowRoot xml:space="preserve" style="line-height:0%;-inkscape-font-specification:Roboto" fill="#000" stroke="none" stroke-opacity="1" stroke-width="1" stroke-linejoin="miter" stroke-linecap="butt" fill-opacity="1" font-family="Roboto" font-style="normal" font-weight="400" font-size="14" letter-spacing="0" word-spacing="0" font-stretch="normal" font-variant="normal"><flowRegion><path style="-inkscape-font-specification:Roboto" d="M479.686 494.85h391.128v464.927H479.686z"/></flowRegion><flowPara/></flowRoot><flowRoot xml:space="preserve" style="line-height:0%;-inkscape-font-specification:Roboto" fill="#000" stroke="none" stroke-opacity="1" stroke-width="1" stroke-linejoin="miter" stroke-linecap="butt" fill-opacity="1" font-family="Roboto" font-style="normal" font-weight="400" font-size="14" letter-spacing="0" word-spacing="0" font-stretch="normal" font-variant="normal"><flowRegion><path style="-inkscape-font-specification:Roboto" d="M856.054 686.725h14.76V897.05h-14.76z"/></flowRegion><flowPara/></flowRoot><flowRoot xml:space="preserve" style="line-height:100%;-inkscape-font-specification:Roboto" transform="matrix(6.70943 0 0 6.70943 -1442.68 -1374.323)" font-style="normal" font-variant="normal" font-weight="400" font-stretch="normal" font-size="125" font-family="Roboto" letter-spacing="0" word-spacing="0" fill="#fff" fill-opacity="1" stroke="none" stroke-width="1" stroke-linecap="butt" stroke-linejoin="miter" stroke-opacity="1"><flowRegion><path style="-inkscape-font-specification:Roboto" d="M280.432 184.9h291.5v339.47h-291.5z"/></flowRegion><flowPara style="-inkscape-font-specification:Roboto" font-style="normal" font-variant="normal" font-weight="400" font-stretch="normal" font-size="130.414" font-family="Roboto">E</flowPara></flowRoot></g></svg>